<svg xmlns="http://www.w3.org/2000/svg" width="201.93412" height="70.6438" viewBox="0 0 201.93412 70.6438">
  <defs>
    <style>
      .cls-1, .cls-3, .cls-6 {
        fill: none;
      }

      .cls-1 {
        stroke: #00a651;
      }

      .cls-1, .cls-10, .cls-11, .cls-12, .cls-3, .cls-5, .cls-6, .cls-8, .cls-9 {
        stroke-miterlimit: 10;
      }

      .cls-2 {
        fill: #00a651;
      }

      .cls-3 {
        stroke: #ed1c24;
      }

      .cls-4 {
        fill: #ed1c24;
      }

      .cls-5 {
        fill: #fff;
      }

      .cls-10, .cls-11, .cls-12, .cls-5, .cls-8 {
        stroke: #231f20;
      }

      .cls-6 {
        stroke: #808285;
      }

      .cls-7 {
        fill: #808285;
      }

      .cls-8 {
        fill: #ffde17;
      }

      .cls-9 {
        fill: #939598;
        stroke: #7f3f98;
        stroke-width: 2px;
      }

      .cls-10 {
        fill: #be1e2d;
      }

      .cls-11 {
        fill: #fbb040;
      }

      .cls-12 {
        fill: #a3def9;
      }
    </style>
  </defs>
  <g id="Layer_2" data-name="Layer 2">
    <g id="Layer_1-2" data-name="Layer 1">
      <g>
        <polyline class="cls-1" points="56.377 49.061 56.377 8.933 56.377 43.025"/>
        <path class="cls-2" d="M56.37669,49.06056a30.22213,30.22213,0,0,0-4.75586-8.54736l4.75586,1.72021,4.75488-1.72021A30.19535,30.19535,0,0,0,56.37669,49.06056Z"/>
      </g>
      <g>
        <polyline class="cls-3" points="148.978 49.061 148.978 8.933 148.978 43.025"/>
        <path class="cls-4" d="M148.9783,49.06056a30.22189,30.22189,0,0,0-4.75586-8.54736l4.75586,1.72021,4.75489-1.72021A30.19562,30.19562,0,0,0,148.9783,49.06056Z"/>
      </g>
      <circle class="cls-5" cx="103.49668" cy="55.81726" r="6.7567"/>
      <g>
        <line class="cls-6" x1="12.32134" y1="40.22056" x2="44.99669" y2="50.07471"/>
        <path class="cls-7" d="M50.77481,51.81726a30.22192,30.22192,0,0,0-9.5565,2.0854L44.23843,49.846,43.96437,44.797A30.19561,30.19561,0,0,0,50.77481,51.81726Z"/>
      </g>
      <g>
        <line class="cls-6" x1="10.15671" y1="63.32992" x2="44.56697" y2="59.17612"/>
        <path class="cls-7" d="M50.55864,58.45285a30.22183,30.22183,0,0,0-7.9158,5.74593L43.7807,59.271,41.503,54.75659A30.19576,30.19576,0,0,0,50.55864,58.45285Z"/>
      </g>
      <g>
        <line class="cls-6" x1="60.97858" y1="55.81726" x2="90.70482" y2="55.81726"/>
        <path class="cls-7" d="M96.74,55.81726a30.222,30.222,0,0,0-8.54737,4.75586l1.72022-4.75586-1.72022-4.75488A30.19565,30.19565,0,0,0,96.74,55.81726Z"/>
      </g>
      <circle class="cls-5" cx="7.2567" cy="39.22056" r="6.7567"/>
      <circle class="cls-8" cx="7.25671" cy="63.3871" r="6.7567"/>
      <polygon class="cls-9" points="60.604 60.657 56.377 58.32 52.149 60.657 52.957 55.708 49.537 52.203 54.263 51.48 56.377 46.977 58.49 51.48 63.217 52.203 59.797 55.708 60.604 60.657"/>
      <g>
        <line class="cls-6" x1="109.35936" y1="55.81726" x2="139.0856" y2="55.81726"/>
        <path class="cls-7" d="M145.12075,55.81726a30.222,30.222,0,0,0-8.54736,4.75586l1.72022-4.75586-1.72022-4.75488A30.19573,30.19573,0,0,0,145.12075,55.81726Z"/>
      </g>
      <polygon class="cls-9" points="153.206 60.657 148.978 58.32 144.751 60.657 145.558 55.708 142.138 52.203 146.865 51.48 148.978 46.977 151.092 51.48 155.818 52.203 152.398 55.708 153.206 60.657"/>
      <circle class="cls-10" cx="194.67742" cy="55.81726" r="6.7567"/>
      <g>
        <line class="cls-6" x1="152.1593" y1="55.81726" x2="181.88556" y2="55.81726"/>
        <path class="cls-7" d="M187.92072,55.81726a30.22208,30.22208,0,0,0-8.54737,4.75586l1.72022-4.75586-1.72022-4.75488A30.19579,30.19579,0,0,0,187.92072,55.81726Z"/>
      </g>
      <rect class="cls-11" x="143.57292" y="0.5" width="10.81076" height="10.81076"/>
      <rect class="cls-12" x="50.9713" y="0.5" width="10.81076" height="10.81076"/>
    </g>
  </g>
</svg>
