<svg xmlns="http://www.w3.org/2000/svg" width="114.3475" height="46.58912" viewBox="0 0 114.3475 46.58912">
  <defs>
    <style>
      .cls-1, .cls-5 {
        fill: none;
      }

      .cls-1 {
        stroke: #808285;
      }

      .cls-1, .cls-3, .cls-4, .cls-5, .cls-6, .cls-7, .cls-8 {
        stroke-miterlimit: 10;
      }

      .cls-2 {
        fill: #808285;
      }

      .cls-3 {
        fill: #f9ed32;
      }

      .cls-3, .cls-4, .cls-6, .cls-7 {
        stroke: #231f20;
      }

      .cls-4 {
        fill: #2e3192;
      }

      .cls-5 {
        stroke: #ed1c24;
      }

      .cls-5, .cls-8 {
        stroke-width: 2px;
      }

      .cls-6 {
        fill: #1c75bc;
      }

      .cls-7 {
        fill: #a3def9;
      }

      .cls-8 {
        fill: #939598;
        stroke: #7f3f98;
      }
    </style>
  </defs>
  <g id="Layer_2" data-name="Layer 2">
    <g id="Layer_1-2" data-name="Layer 1">
      <g>
        <line class="cls-1" x1="17.22678" y1="10.33931" x2="49.90214" y2="20.19346"/>
        <path class="cls-2" d="M55.68026,21.936a30.22192,30.22192,0,0,0-9.55649,2.0854l3.02012-4.05662-.27407-5.04905A30.19561,30.19561,0,0,0,55.68026,21.936Z"/>
      </g>
      <g>
        <line class="cls-1" x1="15.06215" y1="33.44867" x2="49.47242" y2="29.29487"/>
        <path class="cls-2" d="M55.46409,28.5716a30.22156,30.22156,0,0,0-7.91579,5.74593l1.13785-4.92774L46.4085,24.87533A30.19546,30.19546,0,0,0,55.46409,28.5716Z"/>
      </g>
      <circle class="cls-3" cx="12.16215" cy="9.33931" r="6.7567"/>
      <circle class="cls-4" cx="12.16216" cy="33.50585" r="6.7567"/>
      <line class="cls-5" y1="45.58912" x2="24.32432" y2="45.58912"/>
      <circle class="cls-6" cx="102.34779" cy="7.2567" r="6.7567"/>
      <g>
        <line class="cls-1" x1="63.13243" y1="29.52708" x2="91.86699" y2="39.12794"/>
        <path class="cls-2" d="M97.59111,41.04049a30.2216,30.2216,0,0,0-9.614,1.80206l3.13868-3.9656L90.9911,33.822A30.19559,30.19559,0,0,0,97.59111,41.04049Z"/>
      </g>
      <g>
        <line class="cls-1" x1="64.91682" y1="21.77024" x2="89.8976" y2="10.70156"/>
        <path class="cls-2" d="M95.41536,8.2567a30.2216,30.2216,0,0,0-5.888,7.8107l-.35386-5.045L85.67454,7.372A30.19566,30.19566,0,0,0,95.41536,8.2567Z"/>
      </g>
      <line class="cls-5" x1="90.02317" y1="19.42258" x2="114.3475" y2="19.42258"/>
      <rect class="cls-7" x="96.94241" y="34.6351" width="10.81076" height="10.81076"/>
      <polygon class="cls-8" points="64.509 30.776 60.282 28.439 56.055 30.776 56.862 25.827 53.442 22.321 58.168 21.599 60.282 17.096 62.396 21.599 67.122 22.321 63.702 25.827 64.509 30.776"/>
    </g>
  </g>
</svg>
