<svg xmlns="http://www.w3.org/2000/svg" width="201.93412" height="38.67994" viewBox="0 0 201.93412 38.67994">
  <defs>
    <style>
      .cls-1 {
        fill: #f7941d;
      }

      .cls-1, .cls-4, .cls-5, .cls-7 {
        stroke: #231f20;
      }

      .cls-1, .cls-2, .cls-4, .cls-5, .cls-6, .cls-7 {
        stroke-miterlimit: 10;
      }

      .cls-2 {
        fill: none;
        stroke: #808285;
      }

      .cls-3 {
        fill: #808285;
      }

      .cls-4 {
        fill: #fff;
      }

      .cls-5 {
        fill: #ffde17;
      }

      .cls-6 {
        fill: #939598;
        stroke: #7f3f98;
        stroke-width: 2px;
      }

      .cls-7 {
        fill: #be1e2d;
      }
    </style>
  </defs>
  <g id="Layer_2" data-name="Layer 2">
    <g id="Layer_1-2" data-name="Layer 1">
      <circle class="cls-1" cx="103.49668" cy="23.8534" r="6.7567"/>
      <g>
        <line class="cls-2" x1="12.32134" y1="8.2567" x2="44.99669" y2="18.11085"/>
        <path class="cls-3" d="M50.77481,19.85341a30.22164,30.22164,0,0,0-9.5565,2.08539l3.02012-4.05662-.27406-5.04905A30.19584,30.19584,0,0,0,50.77481,19.85341Z"/>
      </g>
      <g>
        <line class="cls-2" x1="10.15671" y1="31.36606" x2="44.56697" y2="27.21226"/>
        <path class="cls-3" d="M50.55864,26.489a30.22183,30.22183,0,0,0-7.9158,5.74593l1.13786-4.92774L41.503,22.79273A30.19576,30.19576,0,0,0,50.55864,26.489Z"/>
      </g>
      <g>
        <line class="cls-2" x1="60.97858" y1="23.85341" x2="90.70482" y2="23.85341"/>
        <path class="cls-3" d="M96.74,23.85341a30.22167,30.22167,0,0,0-8.54737,4.75585l1.72022-4.75585-1.72022-4.75489A30.19592,30.19592,0,0,0,96.74,23.85341Z"/>
      </g>
      <circle class="cls-4" cx="7.2567" cy="7.2567" r="6.7567"/>
      <circle class="cls-5" cx="7.25671" cy="31.42324" r="6.7567"/>
      <polygon class="cls-6" points="60.604 28.693 56.377 26.357 52.149 28.693 52.957 23.744 49.537 20.239 54.263 19.517 56.377 15.013 58.49 19.517 63.217 20.239 59.797 23.744 60.604 28.693"/>
      <g>
        <line class="cls-2" x1="109.35936" y1="23.85341" x2="139.0856" y2="23.85341"/>
        <path class="cls-3" d="M145.12075,23.85341a30.22176,30.22176,0,0,0-8.54736,4.75585l1.72022-4.75585-1.72022-4.75489A30.196,30.196,0,0,0,145.12075,23.85341Z"/>
      </g>
      <polygon class="cls-6" points="153.206 28.693 148.978 26.357 144.751 28.693 145.558 23.744 142.138 20.239 146.865 19.517 148.978 15.013 151.092 19.517 155.818 20.239 152.398 23.744 153.206 28.693"/>
      <circle class="cls-7" cx="194.67742" cy="23.8534" r="6.7567"/>
      <g>
        <line class="cls-2" x1="152.1593" y1="23.85341" x2="181.88556" y2="23.85341"/>
        <path class="cls-3" d="M187.92072,23.85341a30.22181,30.22181,0,0,0-8.54737,4.75585l1.72022-4.75585-1.72022-4.75489A30.19606,30.19606,0,0,0,187.92072,23.85341Z"/>
      </g>
    </g>
  </g>
</svg>
