<svg xmlns="http://www.w3.org/2000/svg" width="119.5643" height="38.67994" viewBox="0 0 119.5643 38.67994">
  <defs>
    <style>
      .cls-1 {
        fill: #fff200;
      }

      .cls-1, .cls-4, .cls-5 {
        stroke: #231f20;
      }

      .cls-1, .cls-2, .cls-4, .cls-5, .cls-6, .cls-7 {
        stroke-miterlimit: 10;
      }

      .cls-2, .cls-6 {
        fill: none;
      }

      .cls-2 {
        stroke: #808285;
      }

      .cls-3 {
        fill: #808285;
      }

      .cls-4 {
        fill: #27aae1;
      }

      .cls-5 {
        fill: #2e3192;
      }

      .cls-6 {
        stroke: #ed1c24;
      }

      .cls-6, .cls-7 {
        stroke-width: 2px;
      }

      .cls-7 {
        fill: #939598;
        stroke: #7f3f98;
      }
    </style>
  </defs>
  <g id="Layer_2" data-name="Layer 2">
    <g id="Layer_1-2" data-name="Layer 1">
      <circle class="cls-1" cx="107.40214" cy="23.8534" r="6.7567"/>
      <g>
        <line class="cls-2" x1="17.22679" y1="8.2567" x2="49.90215" y2="18.11085"/>
        <path class="cls-3" d="M55.68027,19.8534a30.22192,30.22192,0,0,0-9.55649,2.0854l3.02011-4.05662-.27406-5.04905A30.19561,30.19561,0,0,0,55.68027,19.8534Z"/>
      </g>
      <g>
        <line class="cls-2" x1="15.06216" y1="31.36606" x2="49.47243" y2="27.21226"/>
        <path class="cls-3" d="M55.4641,26.489a30.22162,30.22162,0,0,0-7.91579,5.74593l1.13785-4.92774-2.27765-4.51445A30.1956,30.1956,0,0,0,55.4641,26.489Z"/>
      </g>
      <g>
        <line class="cls-2" x1="64.88404" y1="23.8534" x2="94.61028" y2="23.8534"/>
        <path class="cls-3" d="M100.64544,23.8534a30.222,30.222,0,0,0-8.54737,4.75586l1.72022-4.75586-1.72022-4.75488A30.19565,30.19565,0,0,0,100.64544,23.8534Z"/>
      </g>
      <circle class="cls-4" cx="12.16216" cy="7.2567" r="6.7567"/>
      <circle class="cls-5" cx="12.16217" cy="31.42324" r="6.7567"/>
      <line class="cls-6" y1="17.33997" x2="24.32432" y2="17.33997"/>
      <line class="cls-6" x1="95.23997" y1="34.42324" x2="119.5643" y2="34.42324"/>
      <polygon class="cls-7" points="64.51 28.693 60.282 26.357 56.055 28.693 56.862 23.744 53.442 20.239 58.168 19.517 60.282 15.013 62.396 19.517 67.122 20.239 63.702 23.744 64.51 28.693"/>
    </g>
  </g>
</svg>
