<svg xmlns="http://www.w3.org/2000/svg" width="109.75338" height="51.7495" viewBox="0 0 109.75338 51.7495">
  <defs>
    <style>
      .cls-1 {
        fill: #2b3990;
      }

      .cls-1, .cls-4, .cls-5 {
        stroke: #231f20;
      }

      .cls-1, .cls-2, .cls-4, .cls-5, .cls-6, .cls-8 {
        stroke-miterlimit: 10;
      }

      .cls-2, .cls-6 {
        fill: none;
      }

      .cls-2 {
        stroke: #808285;
      }

      .cls-3 {
        fill: #808285;
      }

      .cls-4, .cls-7 {
        fill: #ed1c24;
      }

      .cls-5 {
        fill: #ffde17;
      }

      .cls-6 {
        stroke: #ed1c24;
      }

      .cls-8 {
        fill: #939598;
        stroke: #7f3f98;
        stroke-width: 2px;
      }
    </style>
  </defs>
  <g id="Layer_2" data-name="Layer 2">
    <g id="Layer_1-2" data-name="Layer 1">
      <circle class="cls-1" cx="102.49668" cy="36.92296" r="6.7567"/>
      <g>
        <line class="cls-2" x1="12.32133" y1="21.32626" x2="44.99669" y2="31.1804"/>
        <path class="cls-3" d="M50.77481,32.923a30.22171,30.22171,0,0,0-9.5565,2.0854l3.02012-4.05663-.27406-5.04905A30.19565,30.19565,0,0,0,50.77481,32.923Z"/>
      </g>
      <g>
        <line class="cls-2" x1="10.1567" y1="44.43562" x2="44.56697" y2="40.28182"/>
        <path class="cls-3" d="M50.55864,39.55854a30.2219,30.2219,0,0,0-7.9158,5.74593l1.13786-4.92773L41.503,35.86228A30.1955,30.1955,0,0,0,50.55864,39.55854Z"/>
      </g>
      <g>
        <line class="cls-2" x1="59.97858" y1="36.92296" x2="89.70482" y2="36.92296"/>
        <path class="cls-3" d="M95.74,36.923a30.222,30.222,0,0,0-8.54736,4.75586L88.91283,36.923l-1.72022-4.75488A30.19573,30.19573,0,0,0,95.74,36.923Z"/>
      </g>
      <circle class="cls-4" cx="7.2567" cy="20.32626" r="6.7567"/>
      <circle class="cls-5" cx="7.25671" cy="44.4928" r="6.7567"/>
      <g>
        <polyline class="cls-6" points="57.813 32.013 90.407 8.607 62.715 28.492"/>
        <path class="cls-7" d="M57.81307,32.01271a30.2225,30.2225,0,0,0,4.16873-8.8486l1.37674,4.86642,4.17072,2.85886A30.19493,30.19493,0,0,0,57.81307,32.01271Z"/>
      </g>
      <circle class="cls-4" cx="92.73997" cy="7.2567" r="6.7567"/>
      <polygon class="cls-8" points="59.604 41.763 55.377 39.426 51.149 41.763 51.957 36.813 48.537 33.308 53.263 32.586 55.377 28.083 57.49 32.586 62.217 33.308 58.797 36.813 59.604 41.763"/>
    </g>
  </g>
</svg>
