<svg xmlns="http://www.w3.org/2000/svg" width="110.75338" height="38.67994" viewBox="0 0 110.75338 38.67994">
  <defs>
    <style>
      .cls-1 {
        fill: #be1e2d;
      }

      .cls-1, .cls-4, .cls-5 {
        stroke: #231f20;
      }

      .cls-1, .cls-2, .cls-4, .cls-5, .cls-6 {
        stroke-miterlimit: 10;
      }

      .cls-2 {
        fill: none;
        stroke: #808285;
      }

      .cls-3 {
        fill: #808285;
      }

      .cls-4 {
        fill: #f15a29;
      }

      .cls-5 {
        fill: #ffde17;
      }

      .cls-6 {
        fill: #939598;
        stroke: #7f3f98;
        stroke-width: 2px;
      }
    </style>
  </defs>
  <g id="Layer_2" data-name="Layer 2">
    <g id="Layer_1-2" data-name="Layer 1">
      <circle class="cls-1" cx="103.49668" cy="23.8534" r="6.7567"/>
      <g>
        <line class="cls-2" x1="12.32133" y1="8.2567" x2="44.99669" y2="18.11085"/>
        <path class="cls-3" d="M50.77481,19.8534a30.222,30.222,0,0,0-9.5565,2.0854l3.02012-4.05662-.27406-5.04905A30.19561,30.19561,0,0,0,50.77481,19.8534Z"/>
      </g>
      <g>
        <line class="cls-2" x1="10.1567" y1="31.36606" x2="44.56697" y2="27.21226"/>
        <path class="cls-3" d="M50.55864,26.489a30.22167,30.22167,0,0,0-7.9158,5.74593l1.13786-4.92774L41.503,22.79273A30.19576,30.19576,0,0,0,50.55864,26.489Z"/>
      </g>
      <g>
        <line class="cls-2" x1="60.97858" y1="23.8534" x2="90.70482" y2="23.8534"/>
        <path class="cls-3" d="M96.74,23.8534a30.222,30.222,0,0,0-8.54736,4.75586l1.72022-4.75586-1.72022-4.75488A30.19573,30.19573,0,0,0,96.74,23.8534Z"/>
      </g>
      <circle class="cls-4" cx="7.2567" cy="7.2567" r="6.7567"/>
      <circle class="cls-5" cx="7.25671" cy="31.42324" r="6.7567"/>
      <polygon class="cls-6" points="60.604 28.693 56.377 26.357 52.149 28.693 52.957 23.744 49.537 20.239 54.263 19.517 56.377 15.013 58.49 19.517 63.217 20.239 59.797 23.744 60.604 28.693"/>
    </g>
  </g>
</svg>
