<svg xmlns="http://www.w3.org/2000/svg" width="110.75338" height="67.00441" viewBox="0 0 110.75338 67.00441">
  <defs>
    <style>
      .cls-1 {
        fill: #f15a29;
      }

      .cls-1, .cls-4, .cls-7 {
        stroke: #231f20;
      }

      .cls-1, .cls-2, .cls-4, .cls-5, .cls-7, .cls-8 {
        stroke-miterlimit: 10;
      }

      .cls-2, .cls-5 {
        fill: none;
      }

      .cls-2 {
        stroke: #808285;
      }

      .cls-3 {
        fill: #808285;
      }

      .cls-4 {
        fill: #ffde17;
      }

      .cls-5 {
        stroke: #00a651;
      }

      .cls-6 {
        fill: #00a651;
      }

      .cls-7 {
        fill: #be1e2d;
      }

      .cls-8 {
        fill: #939598;
        stroke: #7f3f98;
        stroke-width: 2px;
      }
    </style>
  </defs>
  <g id="Layer_2" data-name="Layer 2">
    <g id="Layer_1-2" data-name="Layer 1">
      <circle class="cls-1" cx="103.49668" cy="52.17787" r="6.7567"/>
      <g>
        <line class="cls-2" x1="12.32133" y1="36.58117" x2="44.99669" y2="46.43532"/>
        <path class="cls-3" d="M50.77481,48.17787a30.222,30.222,0,0,0-9.5565,2.0854l3.02012-4.05662-.27406-5.04905A30.19561,30.19561,0,0,0,50.77481,48.17787Z"/>
      </g>
      <g>
        <line class="cls-2" x1="10.1567" y1="59.69053" x2="44.56697" y2="55.53673"/>
        <path class="cls-3" d="M50.55864,54.81346a30.22167,30.22167,0,0,0-7.9158,5.74593l1.13786-4.92774L41.503,51.1172A30.19576,30.19576,0,0,0,50.55864,54.81346Z"/>
      </g>
      <g>
        <line class="cls-2" x1="60.97858" y1="52.17787" x2="90.70482" y2="52.17787"/>
        <path class="cls-3" d="M96.74,52.17787a30.222,30.222,0,0,0-8.54736,4.75586l1.72022-4.75586L88.19261,47.423A30.19573,30.19573,0,0,0,96.74,52.17787Z"/>
      </g>
      <circle class="cls-1" cx="7.2567" cy="35.58117" r="6.7567"/>
      <circle class="cls-4" cx="7.25671" cy="59.74771" r="6.7567"/>
      <g>
        <polyline class="cls-5" points="57.048 41.523 57.048 1.396 57.048 35.488"/>
        <path class="cls-6" d="M57.04846,41.52343a30.222,30.222,0,0,0-4.75586-8.54736l4.75586,1.72021,4.75488-1.72021A30.19549,30.19549,0,0,0,57.04846,41.52343Z"/>
      </g>
      <rect class="cls-7" x="51.97131" y="0.5" width="10.81076" height="10.81076"/>
      <polygon class="cls-8" points="60.604 57.018 56.377 54.681 52.149 57.018 52.957 52.068 49.537 48.563 54.263 47.841 56.377 43.338 58.49 47.841 63.217 48.563 59.797 52.068 60.604 57.018"/>
    </g>
  </g>
</svg>
