<svg id="Layer_1" data-name="Layer 1" xmlns="http://www.w3.org/2000/svg" width="5.49966in" height="5.51408in" viewBox="0 0 395.97537 397.01402"><defs><style>.cls-1{fill:#989898;}.cls-2,.cls-5{fill:#010101;}.cls-3{fill:#fff;}.cls-4{fill:#ed2224;}.cls-5{font-size:8.85969px;font-family:MyriadPro-Regular, Myriad Pro;}.cls-26,.cls-41,.cls-6,.cls-7{fill:#231f20;}.cls-7{font-size:8px;}.cls-26,.cls-41,.cls-7{font-family:ArialMT, Arial;}.cls-37,.cls-39,.cls-8{fill:#939598;}.cls-38,.cls-8{stroke:#7f3f98;}.cls-16,.cls-18,.cls-20,.cls-22,.cls-23,.cls-24,.cls-25,.cls-28,.cls-29,.cls-30,.cls-31,.cls-32,.cls-33,.cls-34,.cls-35,.cls-36,.cls-38,.cls-39,.cls-40,.cls-8{stroke-miterlimit:10;}.cls-34,.cls-38,.cls-8{stroke-width:2px;}.cls-9{fill:#1f295c;}.cls-10,.cls-11,.cls-12,.cls-13,.cls-14,.cls-15,.cls-9{fill-rule:evenodd;}.cls-10{fill:#1870b9;}.cls-11{fill:#28aee4;}.cls-12{fill:#e7e6e6;}.cls-13{fill:#fec010;}.cls-14{fill:#ed2024;}.cls-15{fill:#ffd967;}.cls-16,.cls-18,.cls-20,.cls-22,.cls-34,.cls-38{fill:none;}.cls-16{stroke:#808285;}.cls-17{fill:#808285;}.cls-18,.cls-34{stroke:#ed1c24;}.cls-19,.cls-28{fill:#ed1c24;}.cls-20{stroke:#006838;}.cls-21{fill:#006838;}.cls-22,.cls-23,.cls-24,.cls-25,.cls-28,.cls-29,.cls-30,.cls-31,.cls-32,.cls-33,.cls-35,.cls-36,.cls-39,.cls-40{stroke:#231f20;}.cls-23{fill:#2b3990;}.cls-24{fill:#fbb040;}.cls-25{fill:#ffde17;}.cls-26{font-size:10px;}.cls-27{letter-spacing:-0.01807em;}.cls-29{fill:#be1e2d;}.cls-30{fill:#f15a29;}.cls-31{fill:#fff200;}.cls-32{fill:#27aae1;}.cls-33{fill:#2e3192;}.cls-35{fill:#f9ed32;}.cls-36{fill:#1c75bc;}.cls-40{fill:#a3def9;}.cls-41{font-size:14px;}</style></defs><path class="cls-1" d="M119.35057,567.22905l33.819,18.53175c1.694.92825,3.20957-1.66138,1.51415-2.59042l-33.819-18.53175c-1.694-.92825-3.20958,1.66138-1.51416,2.59042Z" transform="translate(-32.32422 -207.32031)"/><path class="cls-1" d="M120.79553,567.11529l34.5833-18.95057c1.69358-.928.18149-3.51957-1.51416-2.59041l-34.5833,18.95057c-1.69358.928-.18148,3.51957,1.51416,2.59041Z" transform="translate(-32.32422 -207.32031)"/><path class="cls-1" d="M185.35768,547.56369,229.52315,571.765l12.68117,6.94889c1.694.92825,3.20958-1.66137,1.51416-2.59041L199.553,551.92216l-12.68117-6.94889c-1.694-.92824-3.20958,1.66138-1.51416,2.59042Z" transform="translate(-32.32422 -207.32031)"/><path class="cls-1" d="M186.01116,585.68051l44.60732-24.44343,12.83821-7.03494c1.69358-.928.18148-3.51957-1.51416-2.59041l-44.60732,24.44343L184.497,583.09009c-1.69359.928-.18149,3.51958,1.51416,2.59042Z" transform="translate(-32.32422 -207.32031)"/><path class="cls-1" d="M57.31139,456.19666h26.2027a1.5009,1.5009,0,0,0,0-3H57.31139a1.5009,1.5009,0,0,0,0,3Z" transform="translate(-32.32422 -207.32031)"/><path class="cls-1" d="M87.8098,457.94685l27.99079,15.33807c1.694.92825,3.20957-1.66137,1.51415-2.59041L89.324,455.35644c-1.694-.92825-3.20958,1.66137-1.51416,2.59041Z" transform="translate(-32.32422 -207.32031)"/><path class="cls-1" d="M89.24117,452.50354,117.232,437.16546c1.69359-.928.18149-3.51957-1.51416-2.59041L87.727,449.91313c-1.69359.928-.18149,3.51957,1.51416,2.59041Z" transform="translate(-32.32422 -207.32031)"/><path class="cls-1" d="M149.42007,473.94294l32.43857-17.77532c1.69358-.928.18148-3.51958-1.51416-2.59042l-32.43857,17.77533c-1.69358.928-.18148,3.51957,1.51416,2.59041Z" transform="translate(-32.32422 -207.32031)"/><path class="cls-1" d="M147.69824,474.09888l31.91294,17.4873c1.694.92824,3.20958-1.66138,1.51416-2.59042L149.2124,471.50847c-1.694-.92825-3.20958,1.66137-1.51416,2.59041Z" transform="translate(-32.32422 -207.32031)"/><path class="cls-1" d="M185.51687,492.24618h21.66789a1.5009,1.5009,0,0,0,0-3H185.51687a1.5009,1.5009,0,0,0,0,3Z" transform="translate(-32.32422 -207.32031)"/><path class="cls-1" d="M233.04154,492.53347h51.0636a1.5009,1.5009,0,0,0,0-3h-51.0636a1.5009,1.5009,0,0,0,0,3Z" transform="translate(-32.32422 -207.32031)"/><path class="cls-1" d="M146.22121,437.039l26.35887,42.76967,7.56839,12.2804c1.01115,1.64068,3.60717.13563,2.59041-1.51416L156.38,447.80524l-7.56839-12.2804c-1.01114-1.64068-3.60717-.13563-2.59041,1.51415Z" transform="translate(-32.32422 -207.32031)"/><path class="cls-1" d="M144.99131,436.39856l35.53412,19.47159c1.694.92825,3.20958-1.66137,1.51416-2.59041l-35.53412-19.47159c-1.694-.92825-3.20958,1.66138-1.51416,2.59041Z" transform="translate(-32.32422 -207.32031)"/><path class="cls-1" d="M186.4602,456.19669h26.20269a1.5009,1.5009,0,0,0,0-3H186.4602a1.5009,1.5009,0,0,0,0,3Z" transform="translate(-32.32422 -207.32031)"/><path class="cls-2" d="M53.08858,460.38985c7.6611,0,7.67379-11.90625,0-11.90625-7.6611,0-7.67379,11.90625,0,11.90625Z" transform="translate(-32.32422 -207.32031)"/><path class="cls-2" d="M120.41427,440.97549c7.6611,0,7.67379-11.90625,0-11.90625-7.66111,0-7.67379,11.90625,0,11.90625Z" transform="translate(-32.32422 -207.32031)"/><path class="cls-3" d="M120.41427,440.02236c6.43452,0,6.44518-10,0-10-6.43452,0-6.44518,10,0,10Z" transform="translate(-32.32422 -207.32031)"/><path class="cls-4" d="M53.08858,459.43672c6.43452,0,6.44518-10,0-10-6.43452,0-6.44518,10,0,10Z" transform="translate(-32.32422 -207.32031)"/><path class="cls-2" d="M120.69365,478.36919c7.66111,0,7.6738-11.90625,0-11.90625-7.6611,0-7.67379,11.90625,0,11.90625Z" transform="translate(-32.32422 -207.32031)"/><path class="cls-3" d="M120.69365,477.41606c6.43453,0,6.44518-10,0-10-6.43452,0-6.44518,10,0,10Z" transform="translate(-32.32422 -207.32031)"/><path class="cls-2" d="M144.27975,440.8455c7.6611,0,7.67379-11.90625,0-11.90625-7.66111,0-7.6738,11.90625,0,11.90625Z" transform="translate(-32.32422 -207.32031)"/><path class="cls-3" d="M144.27975,439.89238c6.43452,0,6.44518-10,0-10-6.43453,0-6.44518,10,0,10Z" transform="translate(-32.32422 -207.32031)"/><path class="cls-2" d="M144.55913,478.2392c7.66111,0,7.6738-11.90625,0-11.90625-7.6611,0-7.67379,11.90625,0,11.90625Z" transform="translate(-32.32422 -207.32031)"/><path class="cls-2" d="M216.37469,460.64981c7.66111,0,7.6738-11.90625,0-11.90625-7.6611,0-7.67379,11.90625,0,11.90625Z" transform="translate(-32.32422 -207.32031)"/><text class="cls-5" transform="translate(148.87031 242.50193) scale(1.05362 1)">*</text><path class="cls-2" d="M128.958,436.25066a1.5009,1.5009,0,0,0,0-3,1.5009,1.5009,0,0,0,0,3Z" transform="translate(-32.32422 -207.32031)"/><path class="cls-2" d="M132.60446,436.25066a1.5009,1.5009,0,0,0,0-3,1.5009,1.5009,0,0,0,0,3Z" transform="translate(-32.32422 -207.32031)"/><path class="cls-2" d="M136.55477,436.25066a1.5009,1.5009,0,0,0,0-3,1.5009,1.5009,0,0,0,0,3Z" transform="translate(-32.32422 -207.32031)"/><path class="cls-2" d="M129.17176,473.82374a1.5009,1.5009,0,0,0,0-3,1.5009,1.5009,0,0,0,0,3Z" transform="translate(-32.32422 -207.32031)"/><path class="cls-2" d="M132.8182,473.82374a1.5009,1.5009,0,0,0,0-3,1.5009,1.5009,0,0,0,0,3Z" transform="translate(-32.32422 -207.32031)"/><path class="cls-2" d="M136.76851,473.82374a1.5009,1.5009,0,0,0,0-3,1.5009,1.5009,0,0,0,0,3Z" transform="translate(-32.32422 -207.32031)"/><path class="cls-2" d="M284.10514,496.762c7.6611,0,7.67379-11.90625,0-11.90625-7.66111,0-7.6738,11.90625,0,11.90625Z" transform="translate(-32.32422 -207.32031)"/><path class="cls-4" d="M284.10514,495.80883c6.43452,0,6.44518-10,0-10-6.43453,0-6.44518,10,0,10Z" transform="translate(-32.32422 -207.32031)"/><path class="cls-2" d="M209.83107,496.582c7.6611,0,7.67379-11.90625,0-11.90625-7.66111,0-7.6738,11.90625,0,11.90625Z" transform="translate(-32.32422 -207.32031)"/><path class="cls-3" d="M209.83107,495.62882c6.43452,0,6.44518-10,0-10-6.43453,0-6.44518,10,0,10Z" transform="translate(-32.32422 -207.32031)"/><text class="cls-5" transform="translate(149.01581 276.06346) scale(1.05362 1)">#</text><path class="cls-2" d="M229.13828,496.9866c7.6611,0,7.67379-11.90625,0-11.90625-7.66111,0-7.6738,11.90625,0,11.90625Z" transform="translate(-32.32422 -207.32031)"/><path class="cls-3" d="M229.13828,496.03347c6.43452,0,6.44518-10,0-10-6.43453,0-6.44518,10,0,10Z" transform="translate(-32.32422 -207.32031)"/><path class="cls-2" d="M217.47,492.53347a1.5009,1.5009,0,0,0,0-3,1.5009,1.5009,0,0,0,0,3Z" transform="translate(-32.32422 -207.32031)"/><path class="cls-2" d="M221.42034,492.53347a1.5009,1.5009,0,0,0,0-3,1.5009,1.5009,0,0,0,0,3Z" transform="translate(-32.32422 -207.32031)"/><path class="cls-2" d="M350.72133,475.19179c7.6611,0,7.67379-11.90625,0-11.90625-7.6611,0-7.67379,11.90625,0,11.90625Z" transform="translate(-32.32422 -207.32031)"/><path class="cls-2" d="M412.45517,456.53873c7.6611,0,7.67379-11.90625,0-11.90625-7.6611,0-7.67379,11.90625,0,11.90625Z" transform="translate(-32.32422 -207.32031)"/><path class="cls-4" d="M412.45517,455.5856c6.43452,0,6.44518-10,0-10-6.43452,0-6.44518,10,0,10Z" transform="translate(-32.32422 -207.32031)"/><path class="cls-4" d="M350.72133,474.23866c6.43452,0,6.44518-10,0-10-6.43452,0-6.44518,10,0,10Z" transform="translate(-32.32422 -207.32031)"/><path class="cls-2" d="M359.01743,467.67146a1.5009,1.5009,0,0,0,0-3,1.5009,1.5009,0,0,0,0,3Z" transform="translate(-32.32422 -207.32031)"/><path class="cls-2" d="M362.48256,466.59375a1.5009,1.5009,0,0,0,0-3,1.5009,1.5009,0,0,0,0,3Z" transform="translate(-32.32422 -207.32031)"/><path class="cls-2" d="M366.23646,465.42623a1.5009,1.5009,0,0,0,0-3,1.5009,1.5009,0,0,0,0,3Z" transform="translate(-32.32422 -207.32031)"/><path class="cls-2" d="M369.6206,464.37371a1.5009,1.5009,0,0,0,0-3,1.5009,1.5009,0,0,0,0,3Z" transform="translate(-32.32422 -207.32031)"/><path class="cls-2" d="M373.3745,463.20619a1.5009,1.5009,0,0,0,0-3,1.5009,1.5009,0,0,0,0,3Z" transform="translate(-32.32422 -207.32031)"/><path class="cls-2" d="M389.4524,458.20571a1.5009,1.5009,0,0,0,0-3,1.5009,1.5009,0,0,0,0,3Z" transform="translate(-32.32422 -207.32031)"/><path class="cls-2" d="M392.91753,457.128a1.5009,1.5009,0,0,0,0-3,1.5009,1.5009,0,0,0,0,3Z" transform="translate(-32.32422 -207.32031)"/><path class="cls-2" d="M396.67143,455.96047a1.5009,1.5009,0,0,0,0-3,1.5009,1.5009,0,0,0,0,3Z" transform="translate(-32.32422 -207.32031)"/><path class="cls-2" d="M400.05557,454.908a1.5009,1.5009,0,0,0,0-3,1.5009,1.5009,0,0,0,0,3Z" transform="translate(-32.32422 -207.32031)"/><path class="cls-2" d="M403.80947,453.74043a1.5009,1.5009,0,0,0,0-3,1.5009,1.5009,0,0,0,0,3Z" transform="translate(-32.32422 -207.32031)"/><path class="cls-3" d="M380.02749,456.5173a1.25075,1.25075,0,0,0,0-2.5,1.25075,1.25075,0,0,0,0,2.5Z" transform="translate(-32.32422 -207.32031)"/><path class="cls-3" d="M382.72182,456.39177a1.25075,1.25075,0,0,0,0-2.5,1.25075,1.25075,0,0,0,0,2.5Z" transform="translate(-32.32422 -207.32031)"/><path class="cls-3" d="M384.85116,457.69922a1.25075,1.25075,0,0,0,0-2.5,1.25075,1.25075,0,0,0,0,2.5Z" transform="translate(-32.32422 -207.32031)"/><path class="cls-3" d="M386.03456,459.72a1.25075,1.25075,0,0,0,0-2.5,1.25075,1.25075,0,0,0,0,2.5Z" transform="translate(-32.32422 -207.32031)"/><path class="cls-3" d="M386.18123,462.06315a1.25075,1.25075,0,0,0,0-2.5,1.25075,1.25075,0,0,0,0,2.5Z" transform="translate(-32.32422 -207.32031)"/><path class="cls-3" d="M385.06905,464.0854a1.25075,1.25075,0,0,0,0-2.5,1.25075,1.25075,0,0,0,0,2.5Z" transform="translate(-32.32422 -207.32031)"/><path class="cls-3" d="M383.13866,465.27251a1.25075,1.25075,0,0,0,0-2.5,1.25075,1.25075,0,0,0,0,2.5Z" transform="translate(-32.32422 -207.32031)"/><path class="cls-3" d="M380.73584,465.475a1.25075,1.25075,0,0,0,0-2.5,1.25075,1.25075,0,0,0,0,2.5Z" transform="translate(-32.32422 -207.32031)"/><path class="cls-3" d="M378.52473,464.57017a1.25075,1.25075,0,0,0,0-2.5,1.25075,1.25075,0,0,0,0,2.5Z" transform="translate(-32.32422 -207.32031)"/><path class="cls-3" d="M377.0354,462.68648a1.25075,1.25075,0,0,0,0-2.5,1.25075,1.25075,0,0,0,0,2.5Z" transform="translate(-32.32422 -207.32031)"/><path class="cls-3" d="M376.78352,460.16648a1.25075,1.25075,0,0,0,0-2.5,1.25075,1.25075,0,0,0,0,2.5Z" transform="translate(-32.32422 -207.32031)"/><path class="cls-3" d="M377.85785,457.77881a1.25075,1.25075,0,0,0,0-2.5,1.25075,1.25075,0,0,0,0,2.5Z" transform="translate(-32.32422 -207.32031)"/><text class="cls-5" transform="translate(222.40742 276.06248) scale(1.05362 1)">#</text><path class="cls-2" d="M412.16453,492.66653c7.6611,0,7.67379-11.90625,0-11.90625-7.66111,0-7.6738,11.90625,0,11.90625Z" transform="translate(-32.32422 -207.32031)"/><path class="cls-4" d="M412.16453,491.7134c6.43452,0,6.44518-10,0-10-6.43453,0-6.44518,10,0,10Z" transform="translate(-32.32422 -207.32031)"/><path class="cls-2" d="M359.37932,474.49674a1.5009,1.5009,0,0,0,0-3,1.5009,1.5009,0,0,0,0,3Z" transform="translate(-32.32422 -207.32031)"/><path class="cls-2" d="M362.89181,475.42617a1.5009,1.5009,0,0,0,0-3,1.5009,1.5009,0,0,0,0,3Z" transform="translate(-32.32422 -207.32031)"/><path class="cls-2" d="M366.697,476.433a1.5009,1.5009,0,0,0,0-3,1.5009,1.5009,0,0,0,0,3Z" transform="translate(-32.32422 -207.32031)"/><path class="cls-2" d="M370.12739,477.34074a1.5009,1.5009,0,0,0,0-3,1.5009,1.5009,0,0,0,0,3Z" transform="translate(-32.32422 -207.32031)"/><path class="cls-2" d="M373.93258,478.34762a1.5009,1.5009,0,0,0,0-3,1.5009,1.5009,0,0,0,0,3Z" transform="translate(-32.32422 -207.32031)"/><path class="cls-2" d="M389.4523,482.66006a1.5009,1.5009,0,0,0,0-3,1.5009,1.5009,0,0,0,0,3Z" transform="translate(-32.32422 -207.32031)"/><path class="cls-2" d="M392.96479,483.58948a1.5009,1.5009,0,0,0,0-3,1.5009,1.5009,0,0,0,0,3Z" transform="translate(-32.32422 -207.32031)"/><path class="cls-2" d="M396.77,484.59636a1.5009,1.5009,0,0,0,0-3,1.5009,1.5009,0,0,0,0,3Z" transform="translate(-32.32422 -207.32031)"/><path class="cls-2" d="M400.20037,485.50406a1.5009,1.5009,0,0,0,0-3,1.5009,1.5009,0,0,0,0,3Z" transform="translate(-32.32422 -207.32031)"/><path class="cls-2" d="M404.00556,486.51093a1.5009,1.5009,0,0,0,0-3,1.5009,1.5009,0,0,0,0,3Z" transform="translate(-32.32422 -207.32031)"/><path class="cls-3" d="M384.01034,476.98593a1.25075,1.25075,0,0,0,0-2.5,1.25075,1.25075,0,0,0,0,2.5Z" transform="translate(-32.32422 -207.32031)"/><path class="cls-3" d="M386.32476,478.30118a1.25075,1.25075,0,0,0,0-2.5,1.25075,1.25075,0,0,0,0,2.5Z" transform="translate(-32.32422 -207.32031)"/><path class="cls-3" d="M386.55316,479.7723a1.25075,1.25075,0,0,0,0-2.5,1.25075,1.25075,0,0,0,0,2.5Z" transform="translate(-32.32422 -207.32031)"/><path class="cls-3" d="M387.13336,482.81489a1.25075,1.25075,0,0,0,0-2.5,1.25075,1.25075,0,0,0,0,2.5Z" transform="translate(-32.32422 -207.32031)"/><path class="cls-3" d="M385.88477,484.8411a1.25075,1.25075,0,0,0,0-2.5,1.25075,1.25075,0,0,0,0,2.5Z" transform="translate(-32.32422 -207.32031)"/><path class="cls-3" d="M383.77684,485.93709a1.25075,1.25075,0,0,0,0-2.5,1.25075,1.25075,0,0,0,0,2.5Z" transform="translate(-32.32422 -207.32031)"/><path class="cls-3" d="M381.47688,485.90731a1.25075,1.25075,0,0,0,0-2.5,1.25075,1.25075,0,0,0,0,2.5Z" transform="translate(-32.32422 -207.32031)"/><path class="cls-3" d="M379.35991,484.80968a1.25075,1.25075,0,0,0,0-2.5,1.25075,1.25075,0,0,0,0,2.5Z" transform="translate(-32.32422 -207.32031)"/><path class="cls-3" d="M378.05009,482.892a1.25075,1.25075,0,0,0,0-2.5,1.25075,1.25075,0,0,0,0,2.5Z" transform="translate(-32.32422 -207.32031)"/><path class="cls-3" d="M377.13528,480.54055a1.25075,1.25075,0,0,0,0-2.5,1.25075,1.25075,0,0,0,0,2.5Z" transform="translate(-32.32422 -207.32031)"/><path class="cls-3" d="M379.17769,478.31184a1.25075,1.25075,0,0,0,0-2.5,1.25075,1.25075,0,0,0,0,2.5Z" transform="translate(-32.32422 -207.32031)"/><path class="cls-3" d="M381.46786,476.892a1.25075,1.25075,0,0,0,0-2.5,1.25075,1.25075,0,0,0,0,2.5Z" transform="translate(-32.32422 -207.32031)"/><text class="cls-5" transform="translate(345.31171 245.80467) scale(1.05362 1)">*</text><text class="cls-5" transform="translate(346.2121 283.21678) scale(1.05362 1)">#</text><path class="cls-2" d="M303.87859,470.59775h28.3021a1.5009,1.5009,0,0,0,0-3h-28.3021a1.5009,1.5009,0,0,0,0,3Z" transform="translate(-32.32422 -207.32031)"/><path class="cls-2" d="M332.673,467.649l-8.60352-5.71768a1.51051,1.51051,0,0,0-2.05228.53812,1.53523,1.53523,0,0,0,.53813,2.05229l8.60351,5.71768a1.51053,1.51053,0,0,0,2.05229-.53813,1.53522,1.53522,0,0,0-.53813-2.05228Z" transform="translate(-32.32422 -207.32031)"/><path class="cls-2" d="M330.84706,468.01l-8.60352,5.71767a1.50024,1.50024,0,1,0,1.51416,2.59041l8.60352-5.71767a1.50024,1.50024,0,1,0-1.51416-2.59041Z" transform="translate(-32.32422 -207.32031)"/><path class="cls-2" d="M158.56114,551.23644c7.66111,0,7.6738-11.90625,0-11.90625-7.6611,0-7.67379,11.90625,0,11.90625Z" transform="translate(-32.32422 -207.32031)"/><path class="cls-3" d="M158.56114,550.28331c6.43453,0,6.44518-10,0-10-6.43452,0-6.44518,10,0,10Z" transform="translate(-32.32422 -207.32031)"/><path class="cls-2" d="M158.06263,592.32168c7.66111,0,7.6738-11.90625,0-11.90625-7.6611,0-7.67379,11.90625,0,11.90625Z" transform="translate(-32.32422 -207.32031)"/><path class="cls-3" d="M158.06263,591.36855c6.43453,0,6.44518-10,0-10-6.43452,0-6.44518,10,0,10Z" transform="translate(-32.32422 -207.32031)"/><path class="cls-2" d="M182.42662,551.10645c7.66111,0,7.6738-11.90625,0-11.90625-7.6611,0-7.67379,11.90625,0,11.90625Z" transform="translate(-32.32422 -207.32031)"/><path class="cls-3" d="M182.42662,550.15333c6.43453,0,6.44518-10,0-10-6.43452,0-6.44518,10,0,10Z" transform="translate(-32.32422 -207.32031)"/><path class="cls-2" d="M181.92811,592.19169c7.66111,0,7.6738-11.90625,0-11.90625-7.6611,0-7.67379,11.90625,0,11.90625Z" transform="translate(-32.32422 -207.32031)"/><path class="cls-3" d="M181.92811,591.23857c6.43453,0,6.44518-10,0-10-6.43452,0-6.44518,10,0,10Z" transform="translate(-32.32422 -207.32031)"/><path class="cls-2" d="M245.11237,558.13645c7.66111,0,7.67379-11.90625,0-11.90625-7.6611,0-7.67379,11.90625,0,11.90625Z" transform="translate(-32.32422 -207.32031)"/><path class="cls-4" d="M245.11237,557.18333c6.43452,0,6.44518-10,0-10-6.43452,0-6.44518,10,0,10Z" transform="translate(-32.32422 -207.32031)"/><path class="cls-2" d="M167.10489,546.51161a1.5009,1.5009,0,0,0,0-3,1.5009,1.5009,0,0,0,0,3Z" transform="translate(-32.32422 -207.32031)"/><path class="cls-2" d="M170.75133,546.51161a1.5009,1.5009,0,0,0,0-3,1.5009,1.5009,0,0,0,0,3Z" transform="translate(-32.32422 -207.32031)"/><path class="cls-2" d="M174.70164,546.51161a1.5009,1.5009,0,0,0,0-3,1.5009,1.5009,0,0,0,0,3Z" transform="translate(-32.32422 -207.32031)"/><path class="cls-2" d="M166.54074,587.77622a1.5009,1.5009,0,0,0,0-3,1.5009,1.5009,0,0,0,0,3Z" transform="translate(-32.32422 -207.32031)"/><path class="cls-2" d="M170.18718,587.77622a1.5009,1.5009,0,0,0,0-3,1.5009,1.5009,0,0,0,0,3Z" transform="translate(-32.32422 -207.32031)"/><path class="cls-2" d="M174.13749,587.77622a1.5009,1.5009,0,0,0,0-3,1.5009,1.5009,0,0,0,0,3Z" transform="translate(-32.32422 -207.32031)"/><path class="cls-2" d="M314.80022,569.86131c7.66111,0,7.6738-11.90625,0-11.90625-7.6611,0-7.67379,11.90625,0,11.90625Z" transform="translate(-32.32422 -207.32031)"/><path class="cls-2" d="M371.78806,551.15387c7.6611,0,7.67379-11.90625,0-11.90625-7.66111,0-7.6738,11.90625,0,11.90625Z" transform="translate(-32.32422 -207.32031)"/><path class="cls-4" d="M371.78806,550.20074c6.43452,0,6.44518-10,0-10-6.43453,0-6.44519,10,0,10Z" transform="translate(-32.32422 -207.32031)"/><path class="cls-4" d="M314.80022,568.90818c6.43453,0,6.44518-10,0-10-6.43452,0-6.44518,10,0,10Z" transform="translate(-32.32422 -207.32031)"/><path class="cls-2" d="M323.69017,564.94541a1.5009,1.5009,0,0,0,0-3,1.5009,1.5009,0,0,0,0,3Z" transform="translate(-32.32422 -207.32031)"/><path class="cls-2" d="M327.33661,564.94541a1.5009,1.5009,0,0,0,0-3,1.5009,1.5009,0,0,0,0,3Z" transform="translate(-32.32422 -207.32031)"/><path class="cls-2" d="M331.28692,564.94541a1.5009,1.5009,0,0,0,0-3,1.5009,1.5009,0,0,0,0,3Z" transform="translate(-32.32422 -207.32031)"/><path class="cls-2" d="M334.84812,564.94541a1.5009,1.5009,0,0,0,0-3,1.5009,1.5009,0,0,0,0,3Z" transform="translate(-32.32422 -207.32031)"/><path class="cls-2" d="M338.79844,564.94541a1.5009,1.5009,0,0,0,0-3,1.5009,1.5009,0,0,0,0,3Z" transform="translate(-32.32422 -207.32031)"/><path class="cls-2" d="M355.73517,562.02356a1.5009,1.5009,0,0,0,0-3,1.5009,1.5009,0,0,0,0,3Z" transform="translate(-32.32422 -207.32031)"/><path class="cls-2" d="M358.31359,559.57635a1.5009,1.5009,0,0,0,0-3,1.5009,1.5009,0,0,0,0,3Z" transform="translate(-32.32422 -207.32031)"/><path class="cls-2" d="M361.10688,556.92521a1.5009,1.5009,0,0,0,0-3,1.5009,1.5009,0,0,0,0,3Z" transform="translate(-32.32422 -207.32031)"/><path class="cls-2" d="M363.625,554.53521a1.5009,1.5009,0,0,0,0-3,1.5009,1.5009,0,0,0,0,3Z" transform="translate(-32.32422 -207.32031)"/><path class="cls-2" d="M366.41832,551.88407a1.5009,1.5009,0,0,0,0-3,1.5009,1.5009,0,0,0,0,3Z" transform="translate(-32.32422 -207.32031)"/><path class="cls-3" d="M351.42925,563.09177a1.25075,1.25075,0,0,0,0-2.5,1.25075,1.25075,0,0,0,0,2.5Z" transform="translate(-32.32422 -207.32031)"/><path class="cls-3" d="M351.89082,565.3618a1.25075,1.25075,0,0,0,0-2.5,1.25075,1.25075,0,0,0,0,2.5Z" transform="translate(-32.32422 -207.32031)"/><path class="cls-3" d="M351.26141,567.63183a1.25075,1.25075,0,0,0,0-2.5,1.25075,1.25075,0,0,0,0,2.5Z" transform="translate(-32.32422 -207.32031)"/><path class="cls-2" d="M268.01149,565.5759h28.3021a1.5009,1.5009,0,0,0,0-3h-28.3021a1.5009,1.5009,0,0,0,0,3Z" transform="translate(-32.32422 -207.32031)"/><path class="cls-2" d="M296.8059,562.62713l-8.60351-5.71768a1.51052,1.51052,0,0,0-2.05229.53813,1.53522,1.53522,0,0,0,.53813,2.05228l8.60352,5.71768a1.51051,1.51051,0,0,0,2.05228-.53813,1.53522,1.53522,0,0,0-.53813-2.05228Z" transform="translate(-32.32422 -207.32031)"/><path class="cls-2" d="M294.98,562.98816l-8.60353,5.71767a1.50024,1.50024,0,1,0,1.51416,2.59041l8.60352-5.71767a1.50024,1.50024,0,1,0-1.51415-2.59041Z" transform="translate(-32.32422 -207.32031)"/><path class="cls-1" d="M119.03663,567.1389l13.66962,27.79752c.85193,1.7324,3.44018.21385,2.59042-1.51416L121.627,565.62475c-.85192-1.73241-3.44017-.21385-2.59041,1.51415Z" transform="translate(-32.32422 -207.32031)"/><path class="cls-2" d="M135.91252,604.33434c7.6611,0,7.67379-11.90625,0-11.90625-7.66111,0-7.67379,11.90625,0,11.90625Z" transform="translate(-32.32422 -207.32031)"/><path class="cls-3" d="M135.91252,603.38121c6.43452,0,6.44518-10,0-10-6.43452,0-6.44518,10,0,10Z" transform="translate(-32.32422 -207.32031)"/><path class="cls-2" d="M371.67656,588.38446c7.66111,0,7.6738-11.90625,0-11.90625-7.6611,0-7.67379,11.90625,0,11.90625Z" transform="translate(-32.32422 -207.32031)"/><path class="cls-4" d="M371.67656,587.43134c6.43453,0,6.44518-10,0-10-6.43452,0-6.44518,10,0,10Z" transform="translate(-32.32422 -207.32031)"/><path class="cls-2" d="M355.53215,568.69539a1.5009,1.5009,0,0,0,0-3,1.5009,1.5009,0,0,0,0,3Z" transform="translate(-32.32422 -207.32031)"/><path class="cls-2" d="M358.11057,571.14259a1.5009,1.5009,0,0,0,0-3,1.5009,1.5009,0,0,0,0,3Z" transform="translate(-32.32422 -207.32031)"/><path class="cls-2" d="M360.90387,573.79373a1.5009,1.5009,0,0,0,0-3,1.5009,1.5009,0,0,0,0,3Z" transform="translate(-32.32422 -207.32031)"/><path class="cls-2" d="M363.422,576.18373a1.5009,1.5009,0,0,0,0-3,1.5009,1.5009,0,0,0,0,3Z" transform="translate(-32.32422 -207.32031)"/><path class="cls-2" d="M366.21531,578.83487a1.5009,1.5009,0,0,0,0-3,1.5009,1.5009,0,0,0,0,3Z" transform="translate(-32.32422 -207.32031)"/><path class="cls-2" d="M244.17824,584.0513c7.6611,0,7.67379-11.90625,0-11.90625-7.66111,0-7.67379,11.90625,0,11.90625Z" transform="translate(-32.32422 -207.32031)"/><path class="cls-4" d="M244.17824,583.09817c6.43452,0,6.44518-10,0-10-6.43452,0-6.44518,10,0,10Z" transform="translate(-32.32422 -207.32031)"/><rect class="cls-6" x="184.29904" y="149.9571" width="9.22756" height="9.22756"/><text class="cls-7" transform="translate(202.63455 157.98515)">Protein complex</text><text class="cls-7" transform="translate(202.63455 175.33662)">Protein</text><circle class="cls-6" cx="189.48987" cy="136.61221" r="5.7672"/><text class="cls-7" transform="translate(202.63455 139.28226)">Metabolite</text><polygon class="cls-8" points="192.521 123.267 188.913 121.273 185.305 123.267 185.994 119.043 183.075 116.051 187.109 115.434 188.913 111.591 190.717 115.434 194.751 116.051 191.832 119.043 192.521 123.267"/><text class="cls-7" transform="translate(202.60748 119.57971)">Reaction pattern</text><polygon class="cls-9" points="309.838 165.315 317.638 165.315 317.638 179.359 309.838 179.359 309.838 165.315 309.838 165.315"/><polygon class="cls-10" points="317.638 165.315 325.558 165.315 325.558 179.359 317.638 179.359 317.638 165.315 317.638 165.315"/><polygon class="cls-11" points="325.438 165.315 333.238 165.315 333.238 179.359 325.438 179.359 325.438 165.315 325.438 165.315"/><polygon class="cls-12" points="332.638 165.315 340.438 165.315 340.438 179.359 332.638 179.359 332.638 165.315 332.638 165.315"/><polygon class="cls-13" points="348.358 165.234 356.158 165.234 356.158 179.278 348.358 179.278 348.358 165.234 348.358 165.234"/><polygon class="cls-14" points="356.158 165.234 363.958 165.234 363.958 179.278 356.158 179.278 356.158 165.234 356.158 165.234"/><polygon class="cls-15" points="340.438 165.315 348.358 165.315 348.358 179.359 340.438 179.359 340.438 165.315 340.438 165.315"/><text class="cls-7" transform="translate(374.47331 176.08514)">High</text><text class="cls-7" transform="translate(279.32243 175.51764)">Low</text><line class="cls-16" x1="284.27755" y1="116.83039" x2="299.53194" y2="116.83039"/><path class="cls-17" d="M337.89132,324.15071a30.22258,30.22258,0,0,0-8.54737,4.75585l1.72022-4.75585-1.72022-4.75489A30.19609,30.19609,0,0,0,337.89132,324.15071Z" transform="translate(-32.32422 -207.32031)"/><line class="cls-18" x1="284.27755" y1="151.70863" x2="300.06106" y2="151.70863"/><path class="cls-19" d="M338.42043,359.02894a30.22143,30.22143,0,0,0-8.54736,4.75586l1.72021-4.75586-1.72021-4.75488A30.1966,30.1966,0,0,0,338.42043,359.02894Z" transform="translate(-32.32422 -207.32031)"/><line class="cls-20" x1="284.27755" y1="134.68232" x2="300.06106" y2="134.68232"/><path class="cls-21" d="M338.42043,342.00263a30.22241,30.22241,0,0,0-8.54736,4.75586l1.72021-4.75586-1.72021-4.75485A30.19555,30.19555,0,0,0,338.42043,342.00263Z" transform="translate(-32.32422 -207.32031)"/><rect class="cls-22" x="310.25289" y="165.7287" width="54.34378" height="13.90498"/><text class="cls-7" transform="translate(312.72815 119.84367)">Core component</text><text class="cls-7" transform="translate(313.84814 137.81718)">Reaction Catalyst</text><text class="cls-7" transform="translate(314.72815 154.76292)">Reaction Inhibitor</text><circle class="cls-23" cx="103.9725" cy="23.56395" r="5.28509"/><line class="cls-16" x1="33.43736" y1="11.36421" x2="57.73754" y2="18.6926"/><path class="cls-17" d="M95.83988,227.75546a30.22159,30.22159,0,0,0-9.55649,2.08541l3.02011-4.05663-.27405-5.04906A30.19522,30.19522,0,0,0,95.83988,227.75546Z" transform="translate(-32.32422 -207.32031)"/><line class="cls-16" x1="31.74419" y1="29.44035" x2="57.35491" y2="26.34879"/><path class="cls-17" d="M95.67079,232.94582a30.222,30.222,0,0,0-7.91579,5.74592l1.13785-4.92773-2.27765-4.51445A30.1957,30.1957,0,0,0,95.67079,232.94582Z" transform="translate(-32.32422 -207.32031)"/><line class="cls-16" x1="70.71484" y1="23.56395" x2="92.65225" y2="23.56395"/><path class="cls-17" d="M131.01163,230.88426a30.22189,30.22189,0,0,0-8.54736,4.75586l1.72021-4.75586-1.72021-4.75488A30.19535,30.19535,0,0,0,131.01163,230.88426Z" transform="translate(-32.32422 -207.32031)"/><circle class="cls-24" cx="29.4758" cy="10.58201" r="5.28509"/><circle class="cls-25" cx="29.47581" cy="29.48508" r="5.28509"/><text class="cls-26" transform="translate(119.70471 25.12892)"><tspan class="cls-27">A</tspan><tspan x="6.48926" y="0">verage</tspan></text><text class="cls-26" transform="translate(120.03806 87.62955)">MinMax</text><text class="cls-26" transform="translate(120.03818 145.27463)">MinMin</text><text class="cls-26" transform="translate(278.11221 28.53307)">Sustained</text><text class="cls-26" transform="translate(278.57213 79.00428)">Modifier Regulation</text><circle class="cls-23" cx="263.3132" cy="86.14618" r="5.34485"/><line class="cls-16" x1="191.98055" y1="73.8085" x2="216.62082" y2="81.23944"/><path class="cls-17" d="M254.72316,290.30231a30.22166,30.22166,0,0,0-9.5565,2.08542l3.02011-4.05664-.274-5.04905A30.19522,30.19522,0,0,0,254.72316,290.30231Z" transform="translate(-32.32422 -207.32031)"/><line class="cls-16" x1="190.26823" y1="92.08902" x2="216.23627" y2="88.95432"/><path class="cls-17" d="M254.55215,295.55136a30.22239,30.22239,0,0,0-7.9158,5.74591l1.13787-4.92773-2.27767-4.51444A30.19535,30.19535,0,0,0,254.55215,295.55136Z" transform="translate(-32.32422 -207.32031)"/><line class="cls-16" x1="229.6795" y1="86.14618" x2="251.9332" y2="86.14618"/><path class="cls-17" d="M290.29257,293.46649a30.22216,30.22216,0,0,0-8.54736,4.75586l1.72021-4.75586-1.72021-4.75488A30.19562,30.19562,0,0,0,290.29257,293.46649Z" transform="translate(-32.32422 -207.32031)"/><circle class="cls-28" cx="187.9742" cy="73.01746" r="5.34485"/><circle class="cls-25" cx="187.9742" cy="92.13425" r="5.34485"/><circle class="cls-29" cx="262.78181" cy="25.00634" r="5.34485"/><line class="cls-16" x1="190.65811" y1="12.66867" x2="215.29839" y2="20.09961"/><path class="cls-17" d="M253.40073,229.16248a30.22159,30.22159,0,0,0-9.55651,2.0854l3.02011-4.05663-.274-5.049A30.19525,30.19525,0,0,0,253.40073,229.16248Z" transform="translate(-32.32422 -207.32031)"/><line class="cls-16" x1="188.9458" y1="30.94919" x2="214.91383" y2="27.81448"/><path class="cls-17" d="M253.22972,234.41151a30.2219,30.2219,0,0,0-7.9158,5.74595l1.13786-4.92775-2.27766-4.51445A30.19559,30.19559,0,0,0,253.22972,234.41151Z" transform="translate(-32.32422 -207.32031)"/><line class="cls-16" x1="229.14813" y1="25.00633" x2="251.40179" y2="25.00633"/><path class="cls-17" d="M289.7612,232.32664a30.2218,30.2218,0,0,0-8.54736,4.75588l1.72018-4.75588-1.72018-4.75486A30.19516,30.19516,0,0,0,289.7612,232.32664Z" transform="translate(-32.32422 -207.32031)"/><circle class="cls-30" cx="186.65176" cy="11.87762" r="5.34485"/><circle class="cls-25" cx="186.65177" cy="30.99442" r="5.34485"/><polyline class="cls-18" points="227.967 82.262 253.75 63.747 232.869 78.742"/><path class="cls-19" d="M260.29074,289.58224a30.22177,30.22177,0,0,0,4.1687-8.84857l1.37677,4.8664,4.17072,2.85888A30.196,30.196,0,0,0,260.29074,289.58224Z" transform="translate(-32.32422 -207.32031)"/><circle class="cls-28" cx="255.59522" cy="62.67886" r="5.34485"/><circle class="cls-31" cx="102.40811" cy="84.64532" r="5.28509"/><line class="cls-16" x1="31.87296" y1="72.44559" x2="56.17316" y2="79.77399"/><path class="cls-17" d="M94.27549,288.83682a30.222,30.222,0,0,0-9.5565,2.08542l3.02012-4.05664-.27405-5.049A30.19533,30.19533,0,0,0,94.27549,288.83682Z" transform="translate(-32.32422 -207.32031)"/><line class="cls-16" x1="30.17979" y1="90.52173" x2="55.79053" y2="87.43015"/><path class="cls-17" d="M94.10641,294.02719a30.22148,30.22148,0,0,0-7.9158,5.74594l1.13785-4.92773-2.27766-4.51447A30.1953,30.1953,0,0,0,94.10641,294.02719Z" transform="translate(-32.32422 -207.32031)"/><line class="cls-16" x1="69.15046" y1="84.64532" x2="91.08786" y2="84.64532"/><path class="cls-17" d="M129.44724,291.96564a30.22189,30.22189,0,0,0-8.54736,4.75586l1.72021-4.75586-1.72021-4.75489A30.19562,30.19562,0,0,0,129.44724,291.96564Z" transform="translate(-32.32422 -207.32031)"/><circle class="cls-32" cx="27.91141" cy="71.66339" r="5.28509"/><circle class="cls-33" cx="27.91142" cy="90.56645" r="5.28509"/><line class="cls-34" x1="18.39817" y1="79.55052" x2="37.42466" y2="79.55052"/><line class="cls-34" x1="92.89487" y1="92.91305" x2="111.92136" y2="92.91305"/><line class="cls-16" x1="34.61066" y1="131.92935" x2="58.91086" y2="139.25775"/><path class="cls-17" d="M97.0132,348.32062a30.22158,30.22158,0,0,0-9.5565,2.08539l3.02011-4.05661-.274-5.04908A30.19509,30.19509,0,0,0,97.0132,348.32062Z" transform="translate(-32.32422 -207.32031)"/><line class="cls-16" x1="32.9175" y1="150.00549" x2="58.52823" y2="146.91394"/><path class="cls-17" d="M96.84411,353.511a30.2217,30.2217,0,0,0-7.9158,5.74594l1.13785-4.92774-2.27765-4.51446A30.19576,30.19576,0,0,0,96.84411,353.511Z" transform="translate(-32.32422 -207.32031)"/><circle class="cls-35" cx="30.64912" cy="131.14716" r="5.28509"/><circle class="cls-33" cx="30.64912" cy="150.05022" r="5.28509"/><line class="cls-34" x1="21.13587" y1="139.03429" x2="40.16236" y2="139.03429"/><circle class="cls-36" cx="101.19232" cy="129.51814" r="5.28509"/><line class="cls-16" x1="70.51806" y1="146.93802" x2="91.74753" y2="154.03128"/><path class="cls-17" d="M129.79584,363.26413a30.2218,30.2218,0,0,0-9.614,1.80206l3.13868-3.9656-.12472-5.05494A30.19609,30.19609,0,0,0,129.79584,363.26413Z" transform="translate(-32.32422 -207.32031)"/><line class="cls-16" x1="71.9138" y1="140.87064" x2="90.25199" y2="132.74521"/><path class="cls-17" d="M128.094,337.62067a30.22173,30.22173,0,0,0-5.888,7.8107l-.35387-5.045-3.499-3.65039A30.19592,30.19592,0,0,0,128.094,337.62067Z" transform="translate(-32.32422 -207.32031)"/><line class="cls-34" x1="91.552" y1="162.53505" x2="110.57848" y2="162.53505"/><text class="cls-26" transform="translate(132.78497 214.61698)">Exhaustive Reaction Collapse</text><text class="cls-26" transform="translate(142.86334 322.92751)">Partial Reaction Collapse</text><rect class="cls-6" x="216.62326" y="375.14021" width="9.22756" height="9.22756" transform="translate(-236.05201 60.34527) rotate(-45)"/><path class="cls-6" d="M35.32394,401.243H427.5751a.75045.75045,0,0,0,0-1.5H35.32394a.75045.75045,0,0,0,0,1.5Z" transform="translate(-32.32422 -207.32031)"/><polygon class="cls-37" points="351.447 256.646 348.158 254.921 344.87 256.646 345.498 252.992 342.837 250.404 346.514 249.871 348.158 246.546 349.802 249.871 353.479 250.404 350.819 252.992 351.447 256.646"/><polygon class="cls-38" points="351.447 256.646 348.158 254.921 344.87 256.646 345.498 252.992 342.837 250.404 346.514 249.871 348.158 246.546 349.802 249.871 353.479 250.404 350.819 252.992 351.447 256.646"/><polygon class="cls-39" points="153.986 251.269 150.698 249.543 147.409 251.269 148.037 247.614 145.377 245.026 149.053 244.493 150.698 241.168 152.342 244.493 156.018 245.026 153.358 247.614 153.986 251.269"/><path class="cls-4" d="M216.37469,459.69669c6.43453,0,6.44519-10,0-10-6.43452,0-6.44518,10,0,10Z" transform="translate(-32.32422 -207.32031)"/><polygon class="cls-39" points="153.821 288.359 150.532 286.633 147.244 288.359 147.872 284.704 145.211 282.116 148.888 281.583 150.532 278.258 152.176 281.583 155.853 282.116 153.193 284.704 153.821 288.359"/><path class="cls-3" d="M144.55913,477.28608c6.43453,0,6.44518-10,0-10-6.43452,0-6.44518,10,0,10Z" transform="translate(-32.32422 -207.32031)"/><polygon class="cls-39" points="57.151 250.991 53.863 249.266 50.574 250.991 51.202 247.337 48.542 244.749 52.219 244.216 53.863 240.891 55.507 244.216 59.184 244.749 56.523 247.337 57.151 250.991"/><polygon class="cls-39" points="190.327 361.945 187.039 360.22 183.751 361.945 184.379 358.291 181.718 355.703 185.395 355.169 187.039 351.845 188.683 355.169 192.36 355.703 189.699 358.291 190.327 361.945"/><polygon class="cls-37" points="317.842 361.175 314.554 359.45 311.265 361.175 311.893 357.521 309.233 354.933 312.909 354.4 314.554 351.075 316.198 354.4 319.874 354.933 317.214 357.521 317.842 361.175"/><polygon class="cls-38" points="317.842 361.175 314.554 359.45 311.265 361.175 311.893 357.521 309.233 354.933 312.909 354.4 314.554 351.075 316.198 354.4 319.874 354.933 317.214 357.521 317.842 361.175"/><path class="cls-1" d="M87.57551,567.27839H113.7782a1.5009,1.5009,0,0,0,0-3H87.57551a1.5009,1.5009,0,0,0,0,3Z" transform="translate(-32.32422 -207.32031)"/><path class="cls-2" d="M83.35269,571.47157c7.66111,0,7.67379-11.90625,0-11.90625-7.6611,0-7.67379,11.90625,0,11.90625Z" transform="translate(-32.32422 -207.32031)"/><path class="cls-4" d="M83.35269,570.51844c6.43452,0,6.44518-10,0-10-6.43452,0-6.44518,10,0,10Z" transform="translate(-32.32422 -207.32031)"/><polygon class="cls-39" points="87.415 361.946 84.127 360.221 80.838 361.946 81.466 358.292 78.806 355.704 82.483 355.171 84.127 351.846 85.771 355.171 89.448 355.704 86.787 358.292 87.415 361.946"/><polygon class="cls-37" points="352.657 276.252 349.368 274.527 346.08 276.252 346.708 272.598 344.047 270.01 347.724 269.477 349.368 266.152 351.012 269.477 354.689 270.01 352.029 272.598 352.657 276.252"/><polygon class="cls-38" points="352.657 276.252 349.368 274.527 346.08 276.252 346.708 272.598 344.047 270.01 347.724 269.477 349.368 266.152 351.012 269.477 354.689 270.01 352.029 272.598 352.657 276.252"/><polygon class="cls-39" points="227.586 288.021 224.297 286.295 221.009 288.021 221.637 284.366 218.977 281.779 222.653 281.245 224.297 277.921 225.942 281.245 229.618 281.779 226.958 284.366 227.586 288.021"/><polygon class="cls-8" points="70.422 27.35 67.115 25.522 63.809 27.35 64.44 23.478 61.765 20.737 65.462 20.172 67.115 16.649 68.769 20.172 72.466 20.737 69.79 23.478 70.422 27.35"/><polygon class="cls-8" points="68.858 88.431 65.551 86.603 62.244 88.431 62.876 84.56 60.201 81.818 63.898 81.253 65.551 77.731 67.204 81.253 70.901 81.818 68.226 84.56 68.858 88.431"/><rect class="cls-40" x="96.96423" y="150.93352" width="8.45618" height="8.45618"/><polygon class="cls-8" points="71.595 147.915 68.289 146.087 64.982 147.915 65.613 144.043 62.938 141.302 66.635 140.737 68.289 137.214 69.942 140.737 73.639 141.302 70.964 144.043 71.595 147.915"/><polygon class="cls-8" points="228.852 28.835 225.508 26.986 222.164 28.835 222.802 24.92 220.097 22.147 223.836 21.576 225.508 18.014 227.18 21.576 230.919 22.147 228.213 24.92 228.852 28.835"/><polygon class="cls-8" points="229.383 89.975 226.039 88.126 222.695 89.975 223.334 86.06 220.628 83.287 224.367 82.716 226.039 79.153 227.711 82.716 231.45 83.287 228.745 86.06 229.383 89.975"/><text class="cls-41" transform="translate(1.99457 12.01427)">a</text><text class="cls-41" transform="translate(-0.00024 218.01426)">b</text></svg>